<?xml version="1.0" encoding="UTF-8" standalone="no"?>
<svg xmlns="http://www.w3.org/2000/svg" version="1.0" width="1000.0" height="1000.0" id="C:\tom\28-gon-dissection-random.svg">
<!-- X Coordinate transform: fx(x)=(x+4.688987)*106.63284-->
<!-- Y Coordinate transform: fy(y)=(4.688987-y)*106.63284 -->
<!-- Flac geometry view -->
<g style="opacity:1.0;fill:#5a5aff;fill-opacity:1;stroke:#000000;stroke-width:4;stroke-opacity:0.80;">  <!-- areaindex 0 -->
<polygon points=" 127.699,203.1 203.1,127.699 293.389,70.967 217.988,146.368"/>
<polygon points=" 605.962,35.749 706.611,70.967 796.9,127.699 696.251,92.481"/>
<polygon points=" 500,976.19 394.038,964.251 293.389,929.033 399.351,940.972"/>
<polygon points=" 605.962,35.749 500,47.688 394.038,35.749 500,23.809"/>
<polygon points=" 929.033,293.389 964.251,394.038 976.19,500 940.972,399.351"/>
<polygon points=" 929.033,293.389 940.972,399.351 929.033,505.313 917.094,399.351"/>
<polygon points=" 796.9,127.699 872.301,203.1 929.033,293.389 853.632,217.988"/>
<polygon points=" 929.033,706.611 872.301,796.9 796.9,872.301 853.632,782.012"/>
<polygon points=" 323.95,158.307 424.599,123.088 334.311,179.821 233.662,215.039"/>
<polygon points=" 127.699,796.9 70.967,706.611 35.749,605.962 92.481,696.251"/>
<polygon points=" 399.351,940.972 309.062,884.24 233.662,808.839 323.95,865.571"/>
<polygon points=" 127.699,203.1 92.481,303.749 35.749,394.038 70.967,293.389"/>
<polygon points=" 255.175,405.977 290.394,305.328 278.455,411.29 243.236,511.939"/>
<polygon points=" 570.744,793.165 470.095,828.384 364.132,840.323 464.781,805.104"/>
</g>
<g style="opacity:1.0;fill:#5abf5a;fill-opacity:1;stroke:#000000;stroke-width:4;stroke-opacity:0.80;">  <!-- areaindex 1 -->
<polygon points=" 500,976.19 399.351,940.972 505.313,929.033 605.962,964.251"/>
<polygon points=" 293.389,929.033 203.1,872.301 309.062,884.24 399.351,940.972"/>
<polygon points=" 293.389,70.967 394.038,35.749 500,47.688 399.351,82.906"/>
<polygon points=" 976.19,500 964.251,605.962 929.033,505.313 940.972,399.351"/>
<polygon points=" 929.033,293.389 828.384,258.17 752.983,182.769 853.632,217.988"/>
<polygon points=" 500,47.688 424.599,123.088 323.95,158.307 399.351,82.906"/>
<polygon points=" 796.9,872.301 706.611,929.033 763.343,838.744 853.632,782.012"/>
<polygon points=" 35.749,605.962 23.809,500 80.542,590.289 92.481,696.251"/>
<polygon points=" 399.351,940.972 323.95,865.571 288.732,764.922 364.132,840.323"/>
<polygon points=" 424.599,123.088 530.562,111.149 440.273,167.881 334.311,179.821"/>
<polygon points=" 929.033,505.313 893.814,605.962 818.413,681.363 853.632,580.714"/>
<polygon points=" 440.273,167.881 530.562,224.614 587.294,314.902 497.005,258.17"/>
<polygon points=" 198.443,496.265 255.175,405.977 243.236,511.939 186.504,602.228"/>
<polygon points=" 752.983,545.496 717.764,646.145 705.825,540.182 741.044,439.533"/>
</g>
<g style="opacity:1.0;fill:#5abfbf;fill-opacity:1;stroke:#000000;stroke-width:4;stroke-opacity:0.80;">  <!-- areaindex 2 -->
<polygon points=" 127.699,203.1 217.988,146.368 323.95,158.307 233.662,215.039"/>
<polygon points=" 796.9,127.699 853.632,217.988 752.983,182.769 696.251,92.481"/>
<polygon points=" 605.962,35.749 530.562,111.149 424.599,123.088 500,47.688"/>
<polygon points=" 605.962,964.251 505.313,929.033 605.962,893.814 706.611,929.033"/>
<polygon points=" 929.033,706.611 893.814,605.962 929.033,505.313 964.251,605.962"/>
<polygon points=" 127.699,796.9 233.662,808.839 309.062,884.24 203.1,872.301"/>
<polygon points=" 23.809,500 35.749,394.038 92.481,484.326 80.542,590.289"/>
<polygon points=" 233.662,808.839 198.443,708.19 288.732,764.922 323.95,865.571"/>
<polygon points=" 828.384,258.17 816.445,364.132 741.044,439.533 752.983,333.571"/>
<polygon points=" 741.044,439.533 705.825,540.182 615.537,596.914 650.755,496.265"/>
<polygon points=" 389.381,729.704 377.442,623.741 434.174,533.453 446.113,639.415"/>
<polygon points=" 276.793,658.96 333.525,568.671 434.174,533.453 377.442,623.741"/>
<polygon points=" 627.476,702.877 552.075,627.476 540.136,521.513 615.537,596.914"/>
<polygon points=" 343.885,476.72 449.847,464.781 540.136,521.513 434.174,533.453"/>
</g>
<g style="opacity:1.0;fill:#bf5a5a;fill-opacity:1;stroke:#000000;stroke-width:4;stroke-opacity:0.80;">  <!-- areaindex 3 -->
<polygon points=" 293.389,70.967 399.351,82.906 323.95,158.307 217.988,146.368"/>
<polygon points=" 35.749,394.038 141.711,405.977 198.443,496.265 92.481,484.326"/>
<polygon points=" 233.662,215.039 290.394,305.328 255.175,405.977 198.443,315.688"/>
<polygon points=" 706.611,929.033 671.393,828.384 728.125,738.095 763.343,838.744"/>
<polygon points=" 198.443,708.19 186.504,602.228 276.793,658.96 288.732,764.922"/>
<polygon points=" 706.611,929.033 605.962,893.814 570.744,793.165 671.393,828.384"/>
<polygon points=" 816.445,364.132 828.384,470.095 752.983,545.496 741.044,439.533"/>
<polygon points=" 818.413,681.363 728.125,738.095 627.476,702.877 717.764,646.145"/>
<polygon points=" 677.582,258.17 752.983,333.571 741.044,439.533 665.643,364.132"/>
<polygon points=" 677.582,258.17 665.643,364.132 575.355,420.865 587.294,314.902"/>
<polygon points=" 243.236,511.939 278.455,411.29 379.104,376.072 343.885,476.72"/>
<polygon points=" 570.744,793.165 464.781,805.104 389.381,729.704 495.343,717.764"/>
<polygon points=" 243.236,511.939 343.885,476.72 434.174,533.453 333.525,568.671"/>
<polygon points=" 389.381,729.704 446.113,639.415 552.075,627.476 495.343,717.764"/>
</g>
<g style="opacity:1.0;fill:#af5aaf;fill-opacity:1;stroke:#000000;stroke-width:4;stroke-opacity:0.80;">  <!-- areaindex 4 -->
<polygon points=" 929.033,706.611 853.632,782.012 818.413,681.363 893.814,605.962"/>
<polygon points=" 127.699,796.9 92.481,696.251 198.443,708.19 233.662,808.839"/>
<polygon points=" 35.749,394.038 92.481,303.749 198.443,315.688 141.711,405.977"/>
<polygon points=" 929.033,505.313 828.384,470.095 816.445,364.132 917.094,399.351"/>
<polygon points=" 530.562,111.149 620.85,167.881 530.562,224.614 440.273,167.881"/>
<polygon points=" 334.311,179.821 440.273,167.881 497.005,258.17 391.043,270.109"/>
<polygon points=" 198.443,315.688 255.175,405.977 198.443,496.265 141.711,405.977"/>
<polygon points=" 929.033,505.313 853.632,580.714 752.983,545.496 828.384,470.095"/>
<polygon points=" 290.394,305.328 391.043,270.109 379.104,376.072 278.455,411.29"/>
<polygon points=" 288.732,764.922 389.381,729.704 464.781,805.104 364.132,840.323"/>
<polygon points=" 717.764,646.145 627.476,702.877 615.537,596.914 705.825,540.182"/>
<polygon points=" 379.104,376.072 485.066,364.132 449.847,464.781 343.885,476.72"/>
<polygon points=" 587.294,314.902 575.355,420.865 485.066,364.132 497.005,258.17"/>
<polygon points=" 575.355,420.865 650.755,496.265 615.537,596.914 540.136,521.513"/>
</g>
<g style="opacity:1.0;fill:#bfbf5a;fill-opacity:1;stroke:#000000;stroke-width:4;stroke-opacity:0.80;">  <!-- areaindex 5 -->
<polygon points=" 605.962,35.749 696.251,92.481 620.85,167.881 530.562,111.149"/>
<polygon points=" 399.351,940.972 364.132,840.323 470.095,828.384 505.313,929.033"/>
<polygon points=" 127.699,203.1 233.662,215.039 198.443,315.688 92.481,303.749"/>
<polygon points=" 92.481,696.251 80.542,590.289 186.504,602.228 198.443,708.19"/>
<polygon points=" 696.251,92.481 752.983,182.769 677.582,258.17 620.85,167.881"/>
<polygon points=" 233.662,215.039 334.311,179.821 391.043,270.109 290.394,305.328"/>
<polygon points=" 929.033,293.389 917.094,399.351 816.445,364.132 828.384,258.17"/>
<polygon points=" 853.632,782.012 763.343,838.744 728.125,738.095 818.413,681.363"/>
<polygon points=" 728.125,738.095 671.393,828.384 570.744,793.165 627.476,702.877"/>
<polygon points=" 391.043,270.109 497.005,258.17 485.066,364.132 379.104,376.072"/>
<polygon points=" 288.732,764.922 276.793,658.96 377.442,623.741 389.381,729.704"/>
<polygon points=" 570.744,793.165 495.343,717.764 552.075,627.476 627.476,702.877"/>
<polygon points=" 741.044,439.533 650.755,496.265 575.355,420.865 665.643,364.132"/>
<polygon points=" 575.355,420.865 540.136,521.513 449.847,464.781 485.066,364.132"/>
</g>
<g style="opacity:1.0;fill:#a6a6ff;fill-opacity:1;stroke:#000000;stroke-width:4;stroke-opacity:0.80;">  <!-- areaindex 6 -->
<polygon points=" 752.983,182.769 828.384,258.17 752.983,333.571 677.582,258.17"/>
<polygon points=" 80.542,590.289 92.481,484.326 198.443,496.265 186.504,602.228"/>
<polygon points=" 505.313,929.033 470.095,828.384 570.744,793.165 605.962,893.814"/>
<polygon points=" 620.85,167.881 677.582,258.17 587.294,314.902 530.562,224.614"/>
<polygon points=" 818.413,681.363 717.764,646.145 752.983,545.496 853.632,580.714"/>
<polygon points=" 186.504,602.228 243.236,511.939 333.525,568.671 276.793,658.96"/>
<polygon points=" 434.174,533.453 540.136,521.513 552.075,627.476 446.113,639.415"/>
</g>
<g style="stroke:#000000;stroke-width:4;stroke-opacity:0.50;fill-opacity:0.0">
<!-- Group: <Default>-->
<polyline points=" 293.389,70.967 394.038,35.749 500,23.809 605.962,35.749 706.611,70.967 796.9,127.699 872.301,203.1 929.033,293.389 964.251,394.038 976.19,500 964.251,605.962 929.033,706.611 872.301,796.9 796.9,872.301 706.611,929.033 605.962,964.251 500,976.19 394.038,964.251 293.389,929.033 203.1,872.301 127.699,796.9 70.967,706.611 35.749,605.962 23.809,500 35.749,394.038 70.967,293.389 127.699,203.1 217.988,146.368 293.389,70.967 203.1,127.699"/>
<polyline points=" 127.699,203.1 203.1,127.699"/>
<polyline points=" 605.962,35.749 696.251,92.481 796.9,127.699"/>
<polyline points=" 500,976.19 399.351,940.972 293.389,929.033"/>
<polyline points=" 394.038,35.749 500,47.688 605.962,35.749"/>
<polyline points=" 976.19,500 940.972,399.351 929.033,293.389"/>
<polyline points=" 929.033,293.389 853.632,217.988 796.9,127.699"/>
<polyline points=" 500,47.688 399.351,82.906 293.389,70.967"/>
<polyline points=" 605.962,964.251 505.313,929.033 399.351,940.972"/>
<polyline points=" 605.962,35.749 530.562,111.149 424.599,123.088 323.95,158.307 217.988,146.368"/>
<polyline points=" 399.351,82.906 323.95,158.307 233.662,215.039 198.443,315.688 141.711,405.977"/>
<polyline points=" 929.033,706.611 853.632,782.012 796.9,872.301"/>
<polyline points=" 500,47.688 424.599,123.088 334.311,179.821 233.662,215.039 127.699,203.1"/>
<polyline points=" 35.749,605.962 92.481,696.251 127.699,796.9"/>
<polyline points=" 706.611,929.033 671.393,828.384 728.125,738.095 818.413,681.363 893.814,605.962 929.033,505.313 940.972,399.351"/>
<polyline points=" 964.251,605.962 929.033,505.313 917.094,399.351 929.033,293.389"/>
<polyline points=" 399.351,940.972 309.062,884.24 233.662,808.839 198.443,708.19 186.504,602.228 198.443,496.265 255.175,405.977 290.394,305.328 391.043,270.109 497.005,258.17 587.294,314.902"/>
<polyline points=" 309.062,884.24 203.1,872.301"/>
<polyline points=" 35.749,394.038 92.481,484.326 80.542,590.289 92.481,696.251"/>
<polyline points=" 23.809,500 80.542,590.289"/>
<polyline points=" 399.351,940.972 323.95,865.571 233.662,808.839 127.699,796.9"/>
<polyline points=" 929.033,293.389 828.384,258.17 752.983,182.769 696.251,92.481"/>
<polyline points=" 752.983,182.769 853.632,217.988"/>
<polyline points=" 35.749,394.038 92.481,303.749 127.699,203.1"/>
<polyline points=" 893.814,605.962 929.033,706.611"/>
<polyline points=" 92.481,696.251 198.443,708.19 288.732,764.922 364.132,840.323 399.351,940.972"/>
<polyline points=" 530.562,111.149 620.85,167.881 677.582,258.17 752.983,333.571 741.044,439.533 752.983,545.496 717.764,646.145 627.476,702.877 570.744,793.165 470.095,828.384 364.132,840.323"/>
<polyline points=" 530.562,224.614 620.85,167.881 696.251,92.481"/>
<polyline points=" 530.562,111.149 440.273,167.881 334.311,179.821"/>
<polyline points=" 186.504,602.228 243.236,511.939 255.175,405.977 198.443,315.688 92.481,303.749"/>
<polyline points=" 706.611,929.033 763.343,838.744 853.632,782.012"/>
<polyline points=" 627.476,702.877 615.537,596.914 540.136,521.513 434.174,533.453 333.525,568.671 276.793,658.96 288.732,764.922 323.95,865.571"/>
<polyline points=" 929.033,505.313 853.632,580.714 818.413,681.363 853.632,782.012"/>
<polyline points=" 505.313,929.033 605.962,893.814 706.611,929.033"/>
<polyline points=" 728.125,738.095 627.476,702.877 552.075,627.476 540.136,521.513 575.355,420.865 587.294,314.902 530.562,224.614 440.273,167.881"/>
<polyline points=" 198.443,496.265 141.711,405.977 35.749,394.038"/>
<polyline points=" 198.443,496.265 92.481,484.326"/>
<polyline points=" 752.983,545.496 828.384,470.095 816.445,364.132 828.384,258.17"/>
<polyline points=" 816.445,364.132 917.094,399.351"/>
<polyline points=" 828.384,470.095 929.033,505.313"/>
<polyline points=" 728.125,738.095 763.343,838.744"/>
<polyline points=" 243.236,511.939 278.455,411.29 290.394,305.328 233.662,215.039"/>
<polyline points=" 587.294,314.902 677.582,258.17 752.983,182.769"/>
<polyline points=" 752.983,333.571 828.384,258.17"/>
<polyline points=" 364.132,840.323 464.781,805.104 570.744,793.165 671.393,828.384"/>
<polyline points=" 605.962,893.814 570.744,793.165 495.343,717.764 389.381,729.704 288.732,764.922"/>
<polyline points=" 243.236,511.939 343.885,476.72 379.104,376.072 391.043,270.109 334.311,179.821"/>
<polyline points=" 752.983,545.496 853.632,580.714"/>
<polyline points=" 615.537,596.914 650.755,496.265 741.044,439.533 816.445,364.132"/>
<polyline points=" 276.793,658.96 186.504,602.228 80.542,590.289"/>
<polyline points=" 470.095,828.384 505.313,929.033"/>
<polyline points=" 497.005,258.17 440.273,167.881"/>
<polyline points=" 717.764,646.145 818.413,681.363"/>
<polyline points=" 650.755,496.265 575.355,420.865 485.066,364.132 379.104,376.072 278.455,411.29"/>
<polyline points=" 717.764,646.145 705.825,540.182 741.044,439.533"/>
<polyline points=" 464.781,805.104 389.381,729.704 377.442,623.741 434.174,533.453"/>
<polyline points=" 377.442,623.741 276.793,658.96"/>
<polyline points=" 333.525,568.671 243.236,511.939"/>
<polyline points=" 575.355,420.865 665.643,364.132 677.582,258.17"/>
<polyline points=" 741.044,439.533 665.643,364.132"/>
<polyline points=" 449.847,464.781 485.066,364.132 497.005,258.17"/>
<polyline points=" 552.075,627.476 495.343,717.764"/>
<polyline points=" 615.537,596.914 705.825,540.182"/>
<polyline points=" 434.174,533.453 343.885,476.72"/>
<polyline points=" 540.136,521.513 449.847,464.781 343.885,476.72"/>
<polyline points=" 434.174,533.453 446.113,639.415 389.381,729.704"/>
<polyline points=" 552.075,627.476 446.113,639.415"/>
</g>
</svg>